<svg width="234" height="61" viewBox="0 0 234 61" fill="none" xmlns="http://www.w3.org/2000/svg">
<path d="M17.052 38.706C16.968 38.706 16.856 38.678 16.716 38.622C16.604 38.566 16.478 38.51 16.338 38.454L1.21799 28.164C0.82599 27.884 0.51799 27.618 0.29399 27.366C0.0979903 27.086 -9.71556e-06 26.736 -9.71556e-06 26.316V25.014C-9.71556e-06 24.594 0.0979903 24.258 0.29399 24.006C0.51799 23.754 0.82599 23.488 1.21799 23.208L16.338 12.918C16.478 12.834 16.604 12.764 16.716 12.708C16.856 12.652 16.968 12.624 17.052 12.624C17.304 12.624 17.514 12.708 17.682 12.876C17.85 13.044 17.934 13.254 17.934 13.506V18C17.934 18.448 17.808 18.798 17.556 19.05C17.304 19.274 17.038 19.484 16.758 19.68L7.60199 25.686L16.758 31.734C17.038 31.902 17.304 32.098 17.556 32.322C17.808 32.546 17.934 32.882 17.934 33.33V37.866C17.934 38.118 17.85 38.328 17.682 38.496C17.514 38.636 17.304 38.706 17.052 38.706Z" fill="#D77CE6"/>
<path d="M18.1253 22.294C18.2093 22.294 18.3213 22.322 18.4613 22.378C18.5733 22.434 18.6993 22.49 18.8393 22.546L33.9593 32.836C34.3513 33.116 34.6593 33.382 34.8833 33.634C35.0793 33.914 35.1773 34.264 35.1773 34.684L35.1773 35.986C35.1773 36.406 35.0793 36.742 34.8833 36.994C34.6593 37.246 34.3513 37.512 33.9593 37.792L18.8393 48.082C18.6993 48.166 18.5733 48.236 18.4613 48.292C18.3213 48.348 18.2093 48.376 18.1253 48.376C17.8733 48.376 17.6633 48.292 17.4953 48.124C17.3273 47.956 17.2433 47.746 17.2433 47.494L17.2433 43C17.2433 42.552 17.3693 42.202 17.6213 41.95C17.8733 41.726 18.1393 41.516 18.4193 41.32L27.5753 35.314L18.4193 29.266C18.1393 29.098 17.8733 28.902 17.6213 28.678C17.3693 28.454 17.2433 28.118 17.2433 27.67L17.2433 23.134C17.2433 22.882 17.3273 22.672 17.4953 22.504C17.6633 22.364 17.8733 22.294 18.1253 22.294Z" fill="#753DCD"/>
<path d="M60.8526 20.2C62.3406 20.2 63.6286 20.448 64.7166 20.944C65.8206 21.44 66.6686 22.144 67.2606 23.056C67.8526 23.968 68.1486 25.048 68.1486 26.296C68.1486 27.528 67.8526 28.608 67.2606 29.536C66.6686 30.448 65.8206 31.152 64.7166 31.648C63.6286 32.128 62.3406 32.368 60.8526 32.368H57.4686V37H53.5806V20.2H60.8526ZM60.6366 29.2C61.8046 29.2 62.6926 28.952 63.3006 28.456C63.9086 27.944 64.2126 27.224 64.2126 26.296C64.2126 25.352 63.9086 24.632 63.3006 24.136C62.6926 23.624 61.8046 23.368 60.6366 23.368H57.4686V29.2H60.6366ZM83.9027 24.088V37H80.3507V35.464C79.8547 36.024 79.2627 36.456 78.5747 36.76C77.8867 37.048 77.1427 37.192 76.3427 37.192C74.6467 37.192 73.3027 36.704 72.3107 35.728C71.3187 34.752 70.8227 33.304 70.8227 31.384V24.088H74.5667V30.832C74.5667 32.912 75.4387 33.952 77.1827 33.952C78.0787 33.952 78.7987 33.664 79.3427 33.088C79.8867 32.496 80.1587 31.624 80.1587 30.472V24.088H83.9027ZM90.9473 25.792C91.3953 25.168 91.9953 24.696 92.7473 24.376C93.5153 24.056 94.3953 23.896 95.3873 23.896V27.352C94.9713 27.32 94.6913 27.304 94.5473 27.304C93.4753 27.304 92.6353 27.608 92.0273 28.216C91.4193 28.808 91.1153 29.704 91.1153 30.904V37H87.3713V24.088H90.9473V25.792ZM105.245 23.896C106.445 23.896 107.533 24.176 108.509 24.736C109.501 25.28 110.277 26.056 110.837 27.064C111.397 28.056 111.677 29.216 111.677 30.544C111.677 31.872 111.397 33.04 110.837 34.048C110.277 35.04 109.501 35.816 108.509 36.376C107.533 36.92 106.445 37.192 105.245 37.192C103.597 37.192 102.301 36.672 101.357 35.632V41.656H97.6135V24.088H101.189V25.576C102.117 24.456 103.469 23.896 105.245 23.896ZM104.597 34.12C105.557 34.12 106.341 33.8 106.949 33.16C107.573 32.504 107.885 31.632 107.885 30.544C107.885 29.456 107.573 28.592 106.949 27.952C106.341 27.296 105.557 26.968 104.597 26.968C103.637 26.968 102.845 27.296 102.221 27.952C101.613 28.592 101.309 29.456 101.309 30.544C101.309 31.632 101.613 32.504 102.221 33.16C102.845 33.8 103.637 34.12 104.597 34.12ZM118.816 37.192C117.36 37.192 116.224 36.808 115.408 36.04C114.592 35.256 114.184 34.152 114.184 32.728V19.192H117.928V32.512C117.928 33.056 118.064 33.48 118.336 33.784C118.624 34.072 119.024 34.216 119.536 34.216C119.728 34.216 119.92 34.192 120.112 34.144C120.32 34.096 120.48 34.04 120.592 33.976L120.76 36.88C120.136 37.088 119.488 37.192 118.816 37.192ZM128.867 34.192C129.539 34.192 130.131 34.096 130.643 33.904C131.171 33.696 131.659 33.376 132.107 32.944L134.099 35.104C132.883 36.496 131.107 37.192 128.771 37.192C127.315 37.192 126.027 36.912 124.907 36.352C123.787 35.776 122.923 34.984 122.315 33.976C121.707 32.968 121.403 31.824 121.403 30.544C121.403 29.28 121.699 28.144 122.291 27.136C122.899 26.112 123.723 25.32 124.763 24.76C125.819 24.184 127.003 23.896 128.315 23.896C129.547 23.896 130.667 24.16 131.675 24.688C132.683 25.2 133.483 25.952 134.075 26.944C134.683 27.92 134.987 29.08 134.987 30.424L125.435 32.272C125.707 32.912 126.131 33.392 126.707 33.712C127.299 34.032 128.019 34.192 128.867 34.192ZM128.315 26.728C127.371 26.728 126.603 27.032 126.011 27.64C125.419 28.248 125.107 29.088 125.075 30.16L131.363 28.936C131.187 28.264 130.827 27.728 130.283 27.328C129.739 26.928 129.083 26.728 128.315 26.728ZM143.288 37.288C141.96 37.288 140.672 37.112 139.424 36.76C138.192 36.392 137.2 35.92 136.448 35.344L137.768 32.416C138.488 32.944 139.344 33.368 140.336 33.688C141.328 34.008 142.32 34.168 143.312 34.168C144.416 34.168 145.232 34.008 145.76 33.688C146.288 33.352 146.552 32.912 146.552 32.368C146.552 31.968 146.392 31.64 146.072 31.384C145.768 31.112 145.368 30.896 144.872 30.736C144.392 30.576 143.736 30.4 142.904 30.208C141.624 29.904 140.576 29.6 139.76 29.296C138.944 28.992 138.24 28.504 137.648 27.832C137.072 27.16 136.784 26.264 136.784 25.144C136.784 24.168 137.048 23.288 137.576 22.504C138.104 21.704 138.896 21.072 139.952 20.608C141.024 20.144 142.328 19.912 143.864 19.912C144.936 19.912 145.984 20.04 147.008 20.296C148.032 20.552 148.928 20.92 149.696 21.4L148.496 24.352C146.944 23.472 145.392 23.032 143.84 23.032C142.752 23.032 141.944 23.208 141.416 23.56C140.904 23.912 140.648 24.376 140.648 24.952C140.648 25.528 140.944 25.96 141.536 26.248C142.144 26.52 143.064 26.792 144.296 27.064C145.576 27.368 146.624 27.672 147.44 27.976C148.256 28.28 148.952 28.76 149.528 29.416C150.12 30.072 150.416 30.96 150.416 32.08C150.416 33.04 150.144 33.92 149.6 34.72C149.072 35.504 148.272 36.128 147.2 36.592C146.128 37.056 144.824 37.288 143.288 37.288ZM159.049 37.192C157.673 37.192 156.433 36.912 155.329 36.352C154.241 35.776 153.385 34.984 152.761 33.976C152.153 32.968 151.849 31.824 151.849 30.544C151.849 29.264 152.153 28.12 152.761 27.112C153.385 26.104 154.241 25.32 155.329 24.76C156.433 24.184 157.673 23.896 159.049 23.896C160.409 23.896 161.593 24.184 162.601 24.76C163.625 25.32 164.369 26.128 164.833 27.184L161.929 28.744C161.257 27.56 160.289 26.968 159.025 26.968C158.049 26.968 157.241 27.288 156.601 27.928C155.961 28.568 155.641 29.44 155.641 30.544C155.641 31.648 155.961 32.52 156.601 33.16C157.241 33.8 158.049 34.12 159.025 34.12C160.305 34.12 161.273 33.528 161.929 32.344L164.833 33.928C164.369 34.952 163.625 35.752 162.601 36.328C161.593 36.904 160.409 37.192 159.049 37.192ZM174.743 23.896C176.343 23.896 177.631 24.376 178.607 25.336C179.599 26.296 180.095 27.72 180.095 29.608V37H176.351V30.184C176.351 29.16 176.127 28.4 175.679 27.904C175.231 27.392 174.583 27.136 173.735 27.136C172.791 27.136 172.039 27.432 171.479 28.024C170.919 28.6 170.639 29.464 170.639 30.616V37H166.895V19.192H170.639V25.432C171.135 24.936 171.735 24.56 172.439 24.304C173.143 24.032 173.911 23.896 174.743 23.896ZM189.773 37.192C188.413 37.192 187.189 36.912 186.101 36.352C185.029 35.776 184.189 34.984 183.581 33.976C182.973 32.968 182.669 31.824 182.669 30.544C182.669 29.264 182.973 28.12 183.581 27.112C184.189 26.104 185.029 25.32 186.101 24.76C187.189 24.184 188.413 23.896 189.773 23.896C191.133 23.896 192.349 24.184 193.421 24.76C194.493 25.32 195.333 26.104 195.941 27.112C196.549 28.12 196.853 29.264 196.853 30.544C196.853 31.824 196.549 32.968 195.941 33.976C195.333 34.984 194.493 35.776 193.421 36.352C192.349 36.912 191.133 37.192 189.773 37.192ZM189.773 34.12C190.733 34.12 191.517 33.8 192.125 33.16C192.749 32.504 193.061 31.632 193.061 30.544C193.061 29.456 192.749 28.592 192.125 27.952C191.517 27.296 190.733 26.968 189.773 26.968C188.813 26.968 188.021 27.296 187.397 27.952C186.773 28.592 186.461 29.456 186.461 30.544C186.461 31.632 186.773 32.504 187.397 33.16C188.021 33.8 188.813 34.12 189.773 34.12ZM205.5 37.192C204.14 37.192 202.916 36.912 201.828 36.352C200.756 35.776 199.916 34.984 199.308 33.976C198.7 32.968 198.396 31.824 198.396 30.544C198.396 29.264 198.7 28.12 199.308 27.112C199.916 26.104 200.756 25.32 201.828 24.76C202.916 24.184 204.14 23.896 205.5 23.896C206.86 23.896 208.076 24.184 209.148 24.76C210.22 25.32 211.06 26.104 211.668 27.112C212.276 28.12 212.58 29.264 212.58 30.544C212.58 31.824 212.276 32.968 211.668 33.976C211.06 34.984 210.22 35.776 209.148 36.352C208.076 36.912 206.86 37.192 205.5 37.192ZM205.5 34.12C206.46 34.12 207.244 33.8 207.852 33.16C208.476 32.504 208.788 31.632 208.788 30.544C208.788 29.456 208.476 28.592 207.852 27.952C207.244 27.296 206.46 26.968 205.5 26.968C204.54 26.968 203.748 27.296 203.124 27.952C202.5 28.592 202.188 29.456 202.188 30.544C202.188 31.632 202.5 32.504 203.124 33.16C203.748 33.8 204.54 34.12 205.5 34.12ZM219.714 37.192C218.258 37.192 217.122 36.808 216.306 36.04C215.49 35.256 215.082 34.152 215.082 32.728V19.192H218.826V32.512C218.826 33.056 218.962 33.48 219.234 33.784C219.522 34.072 219.922 34.216 220.434 34.216C220.626 34.216 220.818 34.192 221.01 34.144C221.218 34.096 221.378 34.04 221.49 33.976L221.658 36.88C221.034 37.088 220.386 37.192 219.714 37.192Z" fill="#FAFAFA"/>
</svg>
