<svg width="15" height="15" viewBox="0 0 15 15" fill="none" xmlns="http://www.w3.org/2000/svg">
<path d="M5.51926 3.02225C6.3637 1.50742 6.78591 0.75 7.41715 0.75C8.0484 0.75 8.47061 1.50742 9.31505 3.02225L9.53351 3.41415C9.77347 3.84462 9.89345 4.05986 10.0805 4.20187C10.2676 4.34388 10.5006 4.3966 10.9666 4.50203L11.3908 4.59802C13.0306 4.96904 13.8505 5.15455 14.0455 5.78182C14.2406 6.4091 13.6817 7.06271 12.5638 8.36995L12.2745 8.70815C11.9569 9.07962 11.798 9.26536 11.7266 9.49514C11.6551 9.72493 11.6791 9.97274 11.7272 10.4684L11.7709 10.9196C11.9399 12.6637 12.0244 13.5358 11.5137 13.9235C11.003 14.3112 10.2354 13.9577 8.70004 13.2508L8.30283 13.0679C7.86654 12.867 7.64839 12.7666 7.41715 12.7666C7.18592 12.7666 6.96777 12.867 6.53148 13.0679L6.13427 13.2508C4.59894 13.9577 3.83127 14.3112 3.32059 13.9235C2.8099 13.5358 2.89441 12.6637 3.06342 10.9196L3.10714 10.4684C3.15517 9.97274 3.17919 9.72493 3.10773 9.49514C3.03627 9.26536 2.87744 9.07962 2.55977 8.70815L2.27055 8.36995C1.15265 7.06271 0.593705 6.4091 0.788769 5.78182C0.983833 5.15455 1.80373 4.96904 3.44351 4.59802L3.86775 4.50203C4.33372 4.3966 4.56671 4.34388 4.75378 4.20187C4.94086 4.05986 5.06084 3.84462 5.3008 3.41416L5.51926 3.02225Z" fill="#FDF41A" stroke="#FDF41A" stroke-width="1.5"/>
</svg>
