<svg width="23" height="17" viewBox="0 0 23 17" fill="none" xmlns="http://www.w3.org/2000/svg">
<path d="M22.425 2.44375C22.1375 1.4375 21.4188 0.71875 20.4125 0.43125C18.6875 2.57045e-07 11.3562 0 11.3562 0C11.3562 0 4.16876 2.57045e-07 2.30001 0.43125C1.29376 0.71875 0.574996 1.4375 0.287496 2.44375C-4.39119e-06 4.3125 0 8.05 0 8.05C0 8.05 4.36977e-06 11.7875 0.431254 13.6563C0.718754 14.6625 1.4375 15.3813 2.44375 15.6688C4.16875 16.1 11.5 16.1 11.5 16.1C11.5 16.1 18.6875 16.1 20.5562 15.6688C21.5625 15.3813 22.2813 14.6625 22.5688 13.6563C23 11.7875 23 8.05 23 8.05C23 8.05 23 4.3125 22.425 2.44375ZM9.19999 11.5V4.6L15.2375 8.05L9.19999 11.5Z" fill="#FAFAFA"/>
</svg>
