<svg width="22" height="22" viewBox="0 0 22 22" fill="none" xmlns="http://www.w3.org/2000/svg">
<path fill-rule="evenodd" clip-rule="evenodd" d="M9.21064 1.03961e-07H12.2894C13.8927 -6.27374e-06 15.1497 -1.12206e-05 16.1539 0.0954674C17.1774 0.192787 18.0155 0.394569 18.7544 0.847319C19.5281 1.32144 20.1786 1.97194 20.6527 2.74563C21.1054 3.48445 21.3072 4.32256 21.4045 5.34611C21.5 6.35029 21.5 7.60725 21.5 9.21063V10.2778C21.5 11.4191 21.5 12.314 21.4507 13.0368C21.4005 13.7723 21.2968 14.3844 21.0623 14.9504C20.4787 16.3593 19.3593 17.4787 17.9504 18.0623C17.1455 18.3957 16.2286 18.4697 14.9733 18.4913C14.5342 18.4989 14.2561 18.5045 14.0441 18.5279C13.846 18.5499 13.7692 18.582 13.7242 18.6082C13.6768 18.6357 13.6122 18.686 13.5001 18.8398C13.3787 19.0064 13.2416 19.2365 13.0242 19.6039L12.4821 20.5197C11.7085 21.8267 9.79147 21.8267 9.01789 20.5197L8.47579 19.6039C8.25835 19.2365 8.12122 19.0064 7.99985 18.8398C7.88772 18.686 7.82313 18.6357 7.77572 18.6082C7.73078 18.582 7.65399 18.5499 7.45588 18.5279C7.24387 18.5045 6.96575 18.4989 6.52666 18.4913C5.27138 18.4697 4.35454 18.3957 3.54957 18.0623C2.14066 17.4787 1.02128 16.3593 0.437693 14.9504C0.203229 14.3844 0.0994959 13.7723 0.0493151 13.0368C-5.61774e-06 12.314 -3.05509e-06 11.4191 2.2317e-07 10.2778L1.03961e-07 9.21064C-6.27374e-06 7.60726 -1.12206e-05 6.35029 0.0954674 5.34611C0.192787 4.32256 0.394569 3.48445 0.847319 2.74563C1.32144 1.97194 1.97194 1.32144 2.74563 0.847319C3.48445 0.394569 4.32256 0.192787 5.34611 0.0954674C6.35029 -1.12206e-05 7.60726 -6.27374e-06 9.21064 1.03961e-07ZM5.48809 1.58873C4.57434 1.67561 3.99291 1.84223 3.52938 2.12628C2.95752 2.47672 2.47672 2.95752 2.12628 3.52938C1.84223 3.99291 1.67561 4.57434 1.58873 5.48809C1.50079 6.413 1.5 7.59876 1.5 9.25V10.25C1.5 11.4251 1.50041 12.2689 1.54584 12.9347C1.59081 13.5938 1.67737 14.0236 1.82351 14.3764C2.25486 15.4178 3.08223 16.2451 4.1236 16.6765C4.63923 16.8901 5.29706 16.9699 6.5525 16.9916L6.58432 16.9921C6.98232 16.999 7.33109 17.0049 7.62097 17.037C7.93246 17.0715 8.2371 17.1412 8.52986 17.3115C8.82015 17.4804 9.02953 17.7059 9.21206 17.9563C9.38072 18.1878 9.55405 18.4806 9.75037 18.8123L10.3087 19.7557C10.5015 20.0813 10.9985 20.0813 11.1912 19.7557L11.7496 18.8123C11.9459 18.4806 12.1192 18.1878 12.2879 17.9563C12.4704 17.7059 12.6798 17.4804 12.9701 17.3115C13.2629 17.1412 13.5675 17.0715 13.879 17.037C14.1689 17.0049 14.5176 16.999 14.9156 16.9921L14.9475 16.9916C16.2029 16.9699 16.8608 16.8901 17.3764 16.6765C18.4178 16.2451 19.2451 15.4178 19.6765 14.3764C19.8226 14.0236 19.9092 13.5938 19.9542 12.9347C19.9996 12.2689 20 11.4251 20 10.25V9.25C20 7.59876 19.9992 6.413 19.9113 5.48809C19.8244 4.57434 19.6578 3.99291 19.3737 3.52938C19.0233 2.95752 18.5425 2.47672 17.9706 2.12628C17.5071 1.84223 16.9257 1.67561 16.0119 1.58873C15.087 1.50079 13.9012 1.5 12.25 1.5H9.25C7.59876 1.5 6.413 1.50079 5.48809 1.58873Z" fill="#AFB2BF"/>
<path d="M7.75 9.75C7.75 10.3023 7.30228 10.75 6.75 10.75C6.19772 10.75 5.75 10.3023 5.75 9.75C5.75 9.19771 6.19772 8.75 6.75 8.75C7.30228 8.75 7.75 9.19771 7.75 9.75Z" fill="#AFB2BF"/>
<path d="M11.75 9.75C11.75 10.3023 11.3023 10.75 10.75 10.75C10.1977 10.75 9.75 10.3023 9.75 9.75C9.75 9.19771 10.1977 8.75 10.75 8.75C11.3023 8.75 11.75 9.19771 11.75 9.75Z" fill="#AFB2BF"/>
<path d="M15.75 9.75C15.75 10.3023 15.3023 10.75 14.75 10.75C14.1977 10.75 13.75 10.3023 13.75 9.75C13.75 9.19771 14.1977 8.75 14.75 8.75C15.3023 8.75 15.75 9.19771 15.75 9.75Z" fill="#AFB2BF"/>
</svg>
